HIERARCHY
ROOT Hips
{
	OFFSET -14.64140 90.27770 -84.91600
	CHANNELS 6 Xposition Yposition Zposition Zrotation Xrotation Yrotation
	JOINT Spine
	{
		OFFSET 0.00000 13.20850 -1.60436
		CHANNELS 3 Zrotation Xrotation Yrotation
		JOINT Spine1
		{
			OFFSET 0.00000 8.61716 0.00000
			CHANNELS 3 Zrotation Xrotation Yrotation
			JOINT Spine2
			{
				OFFSET 0.00000 8.61717 0.00000
				CHANNELS 3 Zrotation Xrotation Yrotation
				JOINT Spine3
				{
					OFFSET 0.00000 8.61717 0.00000
					CHANNELS 3 Zrotation Xrotation Yrotation
					JOINT Neck
					{
						OFFSET 0.00000 11.07920 1.10792
						CHANNELS 3 Zrotation Xrotation Yrotation
						JOINT Neck1
						{
							OFFSET 0.00000 7.08032 0.00000
							CHANNELS 3 Zrotation Xrotation Yrotation
							JOINT Head
							{
								OFFSET 0.00000 7.08031 0.00000
								CHANNELS 3 Zrotation Xrotation Yrotation
								End site
								{
									OFFSET 0.00000 0.00000 0.00000
								}
							}
						}
					}
					JOINT RightShoulder
					{
						OFFSET -0.01000 7.91373 5.19711
						CHANNELS 3 Zrotation Xrotation Yrotation
						JOINT RightArm
						{
							OFFSET -18.41580 0.00000 0.00000
							CHANNELS 3 Zrotation Xrotation Yrotation
							JOINT RightForeArm
							{
								OFFSET -29.11090 0.00000 0.00000
								CHANNELS 3 Zrotation Xrotation Yrotation
								JOINT RightHand
								{
									OFFSET -24.65040 0.00000 0.00000
									CHANNELS 3 Zrotation Xrotation Yrotation
									JOINT RightHandThumb1
									{
										OFFSET -5.35114 -0.85590 3.97906
										CHANNELS 3 Zrotation Xrotation Yrotation
										JOINT RightHandThumb2
										{
											OFFSET -4.52789 0.00000 0.00000
											CHANNELS 3 Zrotation Xrotation Yrotation
											JOINT RightHandThumb3
											{
												OFFSET -2.46976 0.00000 0.00000
												CHANNELS 3 Zrotation Xrotation Yrotation
												End site
												{
													OFFSET 0.00000 0.00000 0.00000
												}
											}
										}
									}
									JOINT RightHandIndex1
									{
										OFFSET -14.26970 0.00000 2.88139
										CHANNELS 3 Zrotation Xrotation Yrotation
										JOINT RightHandIndex2
										{
											OFFSET -5.48836 0.00000 0.00000
											CHANNELS 3 Zrotation Xrotation Yrotation
											JOINT RightHandIndex3
											{
												OFFSET -3.01859 0.00000 0.00000
												CHANNELS 3 Zrotation Xrotation Yrotation
												End site
												{
													OFFSET 0.00000 0.00000 0.00000
												}
											}
										}
									}
									JOINT RightHandMiddle1
									{
										OFFSET -14.26970 0.00000 -0.09147
										CHANNELS 3 Zrotation Xrotation Yrotation
										JOINT RightHandMiddle2
										{
											OFFSET -6.17441 0.00000 0.00000
											CHANNELS 3 Zrotation Xrotation Yrotation
											JOINT RightHandMiddle3
											{
												OFFSET -3.56743 0.00000 0.00000
												CHANNELS 3 Zrotation Xrotation Yrotation
												End site
												{
													OFFSET 0.00000 0.00000 0.00000
												}
											}
										}
									}
									JOINT RightHandRing1
									{
										OFFSET -12.69180 0.00000 -3.06433
										CHANNELS 3 Zrotation Xrotation Yrotation
										JOINT RightHandRing2
										{
											OFFSET -5.62556 0.00000 0.00000
											CHANNELS 3 Zrotation Xrotation Yrotation
											JOINT RightHandRing3
											{
												OFFSET -3.56744 0.00000 0.00000
												CHANNELS 3 Zrotation Xrotation Yrotation
												End site
												{
													OFFSET 0.00000 0.00000 0.00000
												}
											}
										}
									}
									JOINT RightHandPinky1
									{
										OFFSET -11.11390 0.00000 -6.03719
										CHANNELS 3 Zrotation Xrotation Yrotation
										JOINT RightHandPinky2
										{
											OFFSET -4.52789 0.00000 0.00000
											CHANNELS 3 Zrotation Xrotation Yrotation
											JOINT RightHandPinky3
											{
												OFFSET -2.46976 0.00000 0.00000
												CHANNELS 3 Zrotation Xrotation Yrotation
												End site
												{
													OFFSET 0.00000 0.00000 0.00000
												}
											}
										}
									}
								}
							}
						}
					}
					JOINT LeftShoulder
					{
						OFFSET 0.01000 7.91373 5.19711
						CHANNELS 3 Zrotation Xrotation Yrotation
						JOINT LeftArm
						{
							OFFSET 18.41580 0.00000 0.00000
							CHANNELS 3 Zrotation Xrotation Yrotation
							JOINT LeftForeArm
							{
								OFFSET 29.11090 0.00000 0.00000
								CHANNELS 3 Zrotation Xrotation Yrotation
								JOINT LeftHand
								{
									OFFSET 24.65040 0.00000 0.00000
									CHANNELS 3 Zrotation Xrotation Yrotation
									JOINT LeftHandThumb1
									{
										OFFSET 5.35114 -0.85590 3.97906
										CHANNELS 3 Zrotation Xrotation Yrotation
										JOINT LeftHandThumb2
										{
											OFFSET 4.52789 0.00000 0.00000
											CHANNELS 3 Zrotation Xrotation Yrotation
											JOINT LeftHandThumb3
											{
												OFFSET 2.46977 0.00000 0.00000
												CHANNELS 3 Zrotation Xrotation Yrotation
												End site
												{
													OFFSET 0.00000 0.00000 0.00000
												}
											}
										}
									}
									JOINT LeftHandIndex1
									{
										OFFSET 14.26970 0.00000 2.88139
										CHANNELS 3 Zrotation Xrotation Yrotation
										JOINT LeftHandIndex2
										{
											OFFSET 5.48836 0.00000 0.00000
											CHANNELS 3 Zrotation Xrotation Yrotation
											JOINT LeftHandIndex3
											{
												OFFSET 3.01859 0.00000 0.00000
												CHANNELS 3 Zrotation Xrotation Yrotation
												End site
												{
													OFFSET 0.00000 0.00000 0.00000
												}
											}
										}
									}
									JOINT LeftHandMiddle1
									{
										OFFSET 14.26970 0.00000 -0.09147
										CHANNELS 3 Zrotation Xrotation Yrotation
										JOINT LeftHandMiddle2
										{
											OFFSET 6.17440 0.00000 0.00000
											CHANNELS 3 Zrotation Xrotation Yrotation
											JOINT LeftHandMiddle3
											{
												OFFSET 3.56744 0.00000 0.00000
												CHANNELS 3 Zrotation Xrotation Yrotation
												End site
												{
													OFFSET 0.00000 0.00000 0.00000
												}
											}
										}
									}
									JOINT LeftHandRing1
									{
										OFFSET 12.69180 0.00000 -3.06433
										CHANNELS 3 Zrotation Xrotation Yrotation
										JOINT LeftHandRing2
										{
											OFFSET 5.62556 0.00000 0.00000
											CHANNELS 3 Zrotation Xrotation Yrotation
											JOINT LeftHandRing3
											{
												OFFSET 3.56744 0.00000 0.00000
												CHANNELS 3 Zrotation Xrotation Yrotation
												End site
												{
													OFFSET 0.00000 0.00000 0.00000
												}
											}
										}
									}
									JOINT LeftHandPinky1
									{
										OFFSET 11.11390 0.00000 -6.03719
										CHANNELS 3 Zrotation Xrotation Yrotation
										JOINT LeftHandPinky2
										{
											OFFSET 4.52789 0.00000 0.00000
											CHANNELS 3 Zrotation Xrotation Yrotation
											JOINT LeftHandPinky3
											{
												OFFSET 2.46976 0.00000 0.00000
												CHANNELS 3 Zrotation Xrotation Yrotation
												End site
												{
													OFFSET 0.00000 0.00000 0.00000
												}
											}
										}
									}
								}
							}
						}
					}
					JOINT pCube4
					{
						OFFSET 0.00000 10.91090 1.10792
						CHANNELS 3 Zrotation Xrotation Yrotation
						End site
						{
							OFFSET 0.00000 0.00000 0.00000
						}
					}
				}
			}
		}
	}
	JOINT RightUpLeg
	{
		OFFSET -9.98441 0.00000 0.00000
		CHANNELS 3 Zrotation Xrotation Yrotation
		JOINT RightLeg
		{
			OFFSET 0.00000 -42.11790 0.00000
			CHANNELS 3 Zrotation Xrotation Yrotation
			JOINT RightFoot
			{
				OFFSET 0.00000 -45.00020 -0.00001
				CHANNELS 3 Zrotation Xrotation Yrotation
				JOINT RightForeFoot
				{
					OFFSET 0.00000 -3.74820 0.00000
					CHANNELS 3 Zrotation Xrotation Yrotation
					JOINT RightToeBase
					{
						OFFSET 0.00000 0.06325 14.43120
						CHANNELS 3 Zrotation Xrotation Yrotation
						End site
						{
							OFFSET 0.00000 0.00000 0.00000
						}
					}
				}
			}
		}
	}
	JOINT LeftUpLeg
	{
		OFFSET 9.98441 0.00000 0.00000
		CHANNELS 3 Zrotation Xrotation Yrotation
		JOINT LeftLeg
		{
			OFFSET 0.00000 -42.11800 0.00000
			CHANNELS 3 Zrotation Xrotation Yrotation
			JOINT LeftFoot
			{
				OFFSET 0.00000 -45.00070 0.00000
				CHANNELS 3 Zrotation Xrotation Yrotation
				JOINT LeftForeFoot
				{
					OFFSET 0.00000 -3.74824 0.00000
					CHANNELS 3 Zrotation Xrotation Yrotation
					JOINT LeftToeBase
					{
						OFFSET 0.00000 0.06325 14.43110
						CHANNELS 3 Zrotation Xrotation Yrotation
						End site
						{
							OFFSET 0.00000 0.00000 0.00000
						}
					}
				}
			}
		}
	}
}
MOTION
Frames: 4
Frame Time: 0.050000
0.0018906894034940995 0.011137952533778717 0.017690972098119973 -0.005282260677497819 -0.032893020046417046 -0.024468290634784923 -3.5752339878165738 4.01100279024102 -0.7910640130523738 -0.784644604632068 4.477123398506867 0.3853463921595295 -0.8190368879560248 -0.17782526285243627 -1.5985632586812866 1.401075649302885 0.45234148907337624 -0.8918331301232535 -0.9474888754951412 13.303446678420329 -1.1399679389254949 -0.2094887780517795 -0.9480314280120605 -3.391951653734134 0.18314291411151007 -15.620463885009233 -0.24344435586732033 3.458645547827682 -0.8430290071422432 -14.710494148422843 61.87683633244839 14.911560051964534 14.141303707980512 34.60899530716821 4.66379244337303 80.15986227445066 21.07018053599161 0.03316759855009853 -7.668397201994914 4.482301217893377 -0.17405796727224226 -1.6304680845581716 0.023785989261824535 0.041255706545181105 -56.274926608066046 -0.013580703329565184 0.012654719263257206 -56.2249527108631 -38.77374759334691 -0.03182622837820504 0.02928410222399911 -0.03982747427390789 -0.037986476249827095 0.026777143697536705 -0.02641587850352259 0.03908183716440609 0.021764274165407705 -36.68034091757664 0.022160810440049774 0.008611441849438297 -0.012260220705649147 -0.015190962757132137 0.04996081398287819 0.01619930489516761 -0.0425971634234449 -0.002612622558959113 -19.721052809525954 -0.0063818074007861245 -0.009788585536175197 0.00034402932834240023 -0.049390198807774004 -0.003772431784009113 -0.02387083150649255 -0.0027163390858051502 -0.015507526445287127 24.041848874117104 0.004579862658133638 0.025825980456765905 28.87876201514141 -0.02965182463790855 0.04914414355133446 28.8348128037586 0.03346671746913886 0.02859965301703898 1.9895468705217825 0.6503042585789294 13.416734308052332 -53.78132849267352 20.56259883666394 -39.479281198328835 9.322535063597117 -0.46728403544827296 -83.82325645946612 -18.460324935629775 10.578546864898358 -8.004780450365509 -0.4645407237744881 0.10881342783576804 -8.075083385174809 0.0010687423283539089 -0.0296435871268148 44.53774528617132 -0.008205025854365207 -0.01090854190728249 44.59516687437145 12.468271968821783 -0.00759297341276202 -0.048804443731705366 0.024471001119857276 0.005786884966615215 -0.036300427489357266 0.027852321839448368 -0.007161992059708012 -0.026240787107891322 11.108067564499574 0.02190293896066805 -0.035943191737785804 -0.035713539422782783 -0.022644920358755528 0.03627386703104183 0.010467153287891157 -0.002240003452451143 -0.020917850576347978 4.7554160669487695 0.04212008710623475 0.04029867311110674 -0.020621748900043826 0.03186479176520953 0.008795504198456677 -0.000586251004305167 0.008091558706555417 0.023750039685931004 -5.617589175967261 0.011148077170341029 -0.023421686970891552 -6.718766753765607 0.009961111348689542 -0.043177466179684494 -6.764204571815526 0.008685366766326084 -0.029481879365652323 0.04425931948000768 -0.015186369470501662 -0.048700183747933876 8.04137618624571 3.516654358968939 -19.264518881435993 0.03574790922651122 10.405698440273074 0.007698424947192978 -5.646415318860278 -15.66198855636897 3.153479419060549 -0.007441263140997264 -0.004754287899042314 0.037319179840003915 -0.044948555838865846 4.669971579008057 -0.04420418106611731 12.45695430897469 -8.251139386597256 6.864684838906503 -0.013925061603391865 46.36518239755562 0.04726002360594388 -4.350370206471989 -14.764453568086932 -3.867839745917818 -0.01843272574142053 0.04758294324866835 -0.04525242907816566 -0.029716165874410123 -10.722964965012817 -0.0334523287719142 
0.028610863517390197 -0.003739896095467911 0.03462320234438034 -0.010200545638436599 -0.02912710836502351 0.03579119241313359 -3.441660786488512 3.9890103312519543 -0.8531097637950558 -0.7485201134457249 4.472815549106675 0.36840250315757467 -0.7975355280905796 -0.2527837840203979 -1.5690838756327785 1.3974632355220913 0.3802826054392433 -0.953514467172943 -0.998969771124724 13.330472046433387 -1.1906034852846366 -0.19998415981149362 -1.0368279860159044 -3.5206723568668683 0.13704693883241376 -15.72161615579681 -0.31536238311895 3.4722289657725054 -0.8691608452452289 -14.80604322211776 61.441041975788046 14.855483005092962 14.076075261282298 32.47664300706735 4.8689266437043415 79.55637253350278 22.16705533458318 0.06935135869333622 -7.744680917603088 4.553119625456569 -0.10746999031862196 -1.5836136274406916 -0.03138754006391581 0.0036994205379261677 -56.25810184610181 -0.04191906904005623 0.042345318561709 -56.22130429177046 -38.779796134730624 0.005350506623645488 0.016352595556184516 -0.04374558029253771 -0.010860204327912676 0.00436981402602053 -0.03884930301467812 0.03419584439106811 0.003181111614590906 -36.690893962364804 -0.0323313158519167 0.02875766877256098 0.0487510665412708 0.015035258702907828 -0.01345933794158546 0.028100456464923606 0.03521315419877486 -0.012102062637964863 -19.747677468370256 -0.0496463237113313 -0.02426888542610225 -0.03717250999579656 0.006999551938348957 0.002907652660453105 0.04393543632639607 -0.021569683115951296 0.00659271651881887 24.039917198927217 0.03972547222987824 -0.009172868102491434 28.893357145519044 -0.04968686155091886 0.0015004251804935024 28.815652078342016 0.030052811212808162 0.03804833238200658 2.1326902234305107 0.753394280451518 13.454927780276902 -53.36210821113793 18.36951823020454 -40.0166434941091 11.213837534341861 -1.4879584493996085 -83.39124137752893 -19.43458079382315 11.134003578551601 -8.571412861848815 -0.5229459716992104 0.027840262330166225 -8.140577206109464 -0.042734265433353354 0.04928835457366869 44.5544943446309 0.005366438316644831 -0.018272477101965574 44.5486829825064 12.487065564498442 0.03825412130774124 -0.04336141363059322 0.0030446766037415577 0.04102517258757714 0.028068690633757186 0.014915298934672677 -0.005057954799509746 0.04730569250594324 11.147211806412393 0.01481213737461118 -0.008732034329530203 -0.037217059615654365 -0.027190193306554974 -0.03414097386775914 -0.0455348302785101 -0.017286799500992125 -0.0338647462385702 4.727976955482563 -0.021334146495082137 0.016473907027723174 -0.004752514860415567 -0.003040530187465325 -0.01643690351596282 -0.013744108778589942 -0.012262229757917024 -0.002143227245667207 -5.5613742893117175 -0.002061129501365723 0.02129902455230373 -6.71949621115624 0.0342154229937622 -0.0009104381475665039 -6.682128992456305 0.0418302407394566 -0.027180858802584456 -0.022334064226137026 -0.01994107570796631 0.013066835223666811 8.024431295614974 3.4717108672716246 -19.19856284874229 0.021838582030594866 10.369986892609981 -0.01273995783757459 -5.616524993397383 -15.65330287333414 3.1874520353699385 0.03691203552388603 0.03957356858487684 0.02072407815050336 -0.005387495660499533 4.7001036155185725 0.012333939302357658 12.497325618914388 -8.204508456882444 6.9064982494932226 0.03266540709993004 46.393039186095905 0.02049933652020706 -4.314768686079052 -14.701448950873575 -3.805386879453224 0.04615707321086999 -0.03925848911892894 -0.0070494570527573405 0.03499897365687067 -10.78799101237463 -0.04716077754567918 
-0.0030466253526211322 0.014105329114673923 -0.007732991829265644 0.019227025735987283 0.013729570088439003 -0.02001840781337562 -3.364908161896532 3.956122890324443 -0.7965363273784175 -0.6922120783661585 4.526169728620629 0.2945572592130302 -0.7136210076070506 -0.34876074778875465 -1.4871300783269252 1.3527644550882707 0.2930431835256361 -0.9166219065379365 -1.0560783631251178 13.376620781088608 -1.1811174468170575 -0.19507486433753637 -1.0811729043432383 -3.511705613771604 0.1903321650414737 -15.786771937125089 -0.2911534299597207 3.5392771674148698 -0.952953039927137 -14.694979200813002 60.98507363861868 14.854357050056949 13.979592243507835 30.749074759017333 5.74729892281305 79.1212113737407 23.27013201968924 0.06398378430522579 -7.7083319421897425 4.524012604814948 -0.0975049924796437 -1.578362702623917 0.0033496507763470505 -0.014893532828661665 -56.23794519626447 -0.03836840299918662 -0.0036606721014909665 -56.24709888505051 -38.773414173382484 -0.003312079202897757 0.0043950811264038886 -0.014266567744553767 -8.263220701603726e-05 -0.04610493399321934 -0.04379738203317101 0.0027853828951962924 0.015319293114131155 -36.71907108975431 -0.031028577840228805 0.0011172427466172525 -0.021504460088045546 0.042790832447441744 -0.02365332035330873 0.03345855890135517 -0.014574636188544633 0.006927004612194717 -19.797657691809825 -0.04285199249830492 -0.025738454688488985 0.03618898054761322 0.013095702781716179 0.03064450420921677 0.018141446816725578 -0.04351301082026695 -0.04430791660165546 24.063653436753125 -0.032926919724769715 0.0373862672011244 28.845239208525133 0.008235127874563392 -0.001970368705943772 28.85675870536751 -0.044386806611817604 -0.00518338798249214 2.3522841358660047 0.7391234661976925 13.568120532627736 -53.13002109132641 16.378542430970587 -40.88952469598088 12.582836941729903 -2.0735505623929167 -83.27050192957832 -20.369633176412837 11.750416232069767 -9.204731556949742 -0.46289605727767286 0.0913531046000239 -8.095299533340896 -0.030622933679891343 -0.0008752184911393011 44.57823466551888 -0.04087664461954826 -0.03734354120707675 44.60606756707395 12.417085922563357 0.009048728251306707 -0.003372159876579213 -0.01789892612483897 -0.003896347934092504 -0.011524760146480883 0.022269922459650482 -0.04446292289056735 0.03567163319518449 11.099511917739775 0.03792813642826793 0.01347654975046666 0.04259391248103657 0.045067128739324475 0.009423055239496832 0.0038426608610643413 0.0017859911945273229 -0.031109758154863967 4.779606539658448 0.027045890672027124 0.03420048451028987 -0.007953529495332354 0.03627695353791035 -0.03460134496030077 0.019862030269494426 0.03322966345956299 0.03416470195212009 -5.632532932742926 0.02165278578503367 -0.04561542714984307 -6.70960172616277 -0.027101301034647488 0.020482971179720064 -6.7686692304405005 0.0291173407035226 -0.0010435951504468724 0.016688905945280382 -0.043725888600878365 -0.04611931279696454 8.009998942708146 3.4985752178931415 -19.22161133818132 0.005481982770986303 10.39793948914184 0.0013360026027222187 -5.6065445202543325 -15.664367301770282 3.1782165857023825 6.362397234338103e-05 0.011740738465611878 0.015627439976752058 -0.011253679628321406 4.692343372973002 -0.031921298128967754 12.44868627250616 -8.209971289241901 6.873974790184627 -0.020399550633394624 46.38677946081513 0.01799944209935577 -4.351898592215572 -14.716637997049041 -3.8162512620255993 -0.004493843749266396 0.015642459067733643 -0.028152985479900357 -0.006101360143281863 -10.76598470270475 0.0369908149110577 
0.022555804664057346 0.012141849415955175 -0.039432313152771264 0.012073163597456655 0.013518002389684257 -0.0011251473490676246 -3.2490819220256357 3.8451377545013448 -0.8082151048116626 -0.6321309600269124 4.444137820391708 0.27766770888508063 -0.6986805159956296 -0.3602511503000592 -1.5158806641454623 1.2689380348719783 0.21403604249112174 -0.9121712689073598 -1.045999695512156 13.47287387699257 -1.1693763180795955 -0.2182775605040804 -1.1854412005000878 -3.4186824127602518 0.15944386331920232 -15.892281890542385 -0.29919475824858355 3.586834290267039 -0.9755718240921981 -14.658893586473141 60.57239496750871 14.740219725719655 13.937270850882333 29.217571980423344 7.049464824763889 78.75577513044125 24.339152993474855 0.07232063972249136 -7.6455692377065825 4.552848709760826 -0.164083144012869 -1.5710431135974168 -0.04434303032031531 0.03142528426282894 -56.21792443692076 0.045613333170745465 0.04666127628470657 -56.22451982259515 -38.80059248889843 -0.01742002177060929 -0.04148615568039307 -0.00550002478185203 -0.00413391337883707 -0.004381587248066096 -0.04918776587311642 0.013366724647861202 -0.03637710034934026 -36.73470120857783 0.012149457908712864 0.027817774349839088 0.006459845908401293 -0.023424668739305522 -0.016430202500512588 0.0032004063998077115 -0.0043473997415559365 -0.01797309375957839 -19.776850518794273 0.02949770589700212 0.022309128174602958 -0.017514372805242383 0.0007182428552446003 -0.023443744975541088 0.04637754046003587 -0.00211345295644577 0.04854253557698606 24.097020013639785 -0.017379893890570958 -0.03162645153073401 28.902306116367722 0.036040293087864134 0.03261932536964133 28.842760418848815 0.030615307275229726 0.03940582172008566 2.595175984286182 0.8392958386143856 13.531038176745735 -53.100855290921956 14.491344525467255 -41.76658357076953 13.60964752650609 -2.4635354632111017 -83.11984495613407 -21.26746604870828 12.500830129814428 -10.059054238725178 -0.45995873866341197 0.07551264438734569 -8.154166055265463 -0.04856193060933516 0.03884066217377394 44.55376384132289 -0.019001902262197275 0.04002506547567752 44.61369560365171 12.47543586288234 -0.013231361853574675 -0.039383299394341494 0.013325773008022467 -0.014700412923481185 0.025637232354301515 0.024662603115469764 0.016787536729395813 0.0445136926356459 11.082357612480608 -0.030151531726207326 0.03812703616079777 -0.0012438679960836598 0.022212480377422707 0.014810593366627475 -0.04162526884342158 0.006234738194054918 0.026611094402764535 4.794063410965221 0.025600345482296186 0.015613350648512806 -0.00951074882687996 -0.01970384005531874 -0.03726331621381302 -0.047978246320567304 0.006480449988538793 0.01304225769577014 -5.578911332970223 0.0033454759705208027 -0.04284483558460168 -6.689591358137809 -0.03366449055152839 -0.005664040574721989 -6.753085115628689 0.020644424387614102 -0.01127720549453331 -0.027900095311471557 -0.002961054157969423 0.004784997592372568 8.035278779417377 3.4745123109099305 -19.196408501923166 -0.04376092805370306 10.369538203800802 -0.00022294433343159926 -5.602542217683723 -15.697861673648406 3.2262189333366122 -0.0041556688417846415 -0.017894929827020564 0.04233602848571324 -0.0002410695624979882 4.706232988454626 -0.03375350042687488 12.41132918043097 -8.206874162012811 6.92697988030554 -0.0496764340614926 46.3821361228351 -0.03482247235290984 -4.345287882838529 -14.708938821645415 -3.815365859759534 -0.0008862284399338882 -0.0298043382483722 -0.04169122182676726 -0.006395696879829128 -10.738333950887588 0.014270160808994257 
